
Euroleague Final [ 12 MAY 2013 ] Olympiacos Piraeus vs Real Madrid [GR]1st half.avi
Format                                   : AVI
Format/Info                              : Audio Video Interleave
File size                                : 1.49 GiB
Duration                                 : 53mn 11s
Overall bit rate                         : 4 002 Kbps

Video
ID                                       : 0
Format                                   : AVC
Format/Info                              : Advanced Video Codec
Format profile                           : Main@L3.0
Format settings, CABAC                   : Yes
Format settings, ReFrames                : 5 frames
Codec ID                                 : H264
Duration                                 : 53mn 11s
Bit rate                                 : 3 751 Kbps
Width                                    : 720 pixels
Height                                   : 576 pixels
Display aspect ratio                     : 16:9
Frame rate                               : 50.000 fps
Original frame rate                      : 25.000 fps
Standard                                 : PAL
Color space                              : YUV
Chroma subsampling                       : 4:2:0
Bit depth                                : 8 bits
Scan type                                : MBAFF
Bits/(Pixel*Frame)                       : 0.181
Stream size                              : 1.39 GiB (94%)
Color primaries                          : BT.601 NTSC
Transfer characteristics                 : BT.601
Matrix coefficients                      : BT.601

Audio #1
ID                                       : 1
Format                                   : MPEG Audio
Format version                           : Version 1
Format profile                           : Layer 2
Codec ID                                 : 50
Duration                                 : 53mn 10s
Bit rate mode                            : Constant
Bit rate                                 : 160 Kbps
Channel(s)                               : 2 channels
Sampling rate                            : 48.0 KHz
Compression mode                         : Lossy
Stream size                              : 60.9 MiB (4%)
Alignment                                : Aligned on interleaves
Interleave, duration                     : 24 ms (1.20 video frame)

Audio #2
ID                                       : 2
Format                                   : MPEG Audio
Format version                           : Version 1
Format profile                           : Layer 2
Codec ID                                 : 50
Duration                                 : 53mn 10s
Bit rate mode                            : Constant
Bit rate                                 : 64.0 Kbps
Channel(s)                               : 1 channel
Sampling rate                            : 48.0 KHz
Compression mode                         : Lossy
Stream size                              : 24.3 MiB (2%)
Alignment                                : Aligned on interleaves
Interleave, duration                     : 24 ms (1.20 video frame)


Euroleague Final [ 12 MAY 2013 ] Olympiacos Piraeus vs Real Madrid [GR]2nd half.avi
Format                                   : AVI
Format/Info                              : Audio Video Interleave
File size                                : 1.61 GiB
Duration                                 : 56mn 15s
Overall bit rate                         : 4 097 Kbps

Video
ID                                       : 0
Format                                   : AVC
Format/Info                              : Advanced Video Codec
Format profile                           : Main@L3.0
Format settings, CABAC                   : Yes
Format settings, ReFrames                : 5 frames
Codec ID                                 : H264
Duration                                 : 56mn 15s
Bit rate                                 : 3 847 Kbps
Width                                    : 720 pixels
Height                                   : 576 pixels
Display aspect ratio                     : 16:9
Frame rate                               : 50.000 fps
Original frame rate                      : 25.000 fps
Standard                                 : PAL
Color space                              : YUV
Chroma subsampling                       : 4:2:0
Bit depth                                : 8 bits
Scan type                                : MBAFF
Bits/(Pixel*Frame)                       : 0.186
Stream size                              : 1.51 GiB (94%)
Color primaries                          : BT.601 NTSC
Transfer characteristics                 : BT.601
Matrix coefficients                      : BT.601

Audio #1
ID                                       : 1
Format                                   : MPEG Audio
Format version                           : Version 1
Format profile                           : Layer 2
Codec ID                                 : 50
Duration                                 : 56mn 15s
Bit rate mode                            : Constant
Bit rate                                 : 160 Kbps
Channel(s)                               : 2 channels
Sampling rate                            : 48.0 KHz
Compression mode                         : Lossy
Stream size                              : 64.4 MiB (4%)
Alignment                                : Aligned on interleaves
Interleave, duration                     : 24 ms (1.20 video frame)

Audio #2
ID                                       : 2
Format                                   : MPEG Audio
Format version                           : Version 1
Format profile                           : Layer 2
Codec ID                                 : 50
Duration                                 : 56mn 15s
Bit rate mode                            : Constant
Bit rate                                 : 64.0 Kbps
Channel(s)                               : 1 channel
Sampling rate                            : 48.0 KHz
Compression mode                         : Lossy
Stream size                              : 25.8 MiB (2%)
Alignment                                : Aligned on interleaves
Interleave, duration                     : 24 ms (1.20 video frame)


Euroleague Final [ 12 MAY 2013 ] Olympiacos Piraeus vs Real Madrid [GR]award ceremony.mts
Format                                   : BDAV
Format/Info                              : Blu-ray Video
File size                                : 477 MiB
Duration                                 : 16mn 28s
Overall bit rate mode                    : Variable
Overall bit rate                         : 4 053 Kbps



Language                                 :  Greek


 
http://image.bayimg.com/8f44fe62fc9a08d3b952b6fbbcf44a79c1d14409.jpg
 
http://image.bayimg.com/9049bbc3a6d7523f6947529e5595043864271bea.jpg
 
http://image.bayimg.com/03ebd38d7958b05c71e5aad25f2bb4da1daded52.jpg